<?xml version="1.0" encoding="UTF-8"?> <svg xmlns="http://www.w3.org/2000/svg" width="500" height="500" viewBox="0 0 500 500" fill="none"><g clip-path="url(#clip0_429_30)"><circle cx="250" cy="250" r="170" fill="black"></circle><path fill-rule="evenodd" clip-rule="evenodd" d="M500 250C500 388.071 388.071 500 250 500C111.929 500 0 388.071 0 250C0 111.929 111.929 0 250 0C388.071 0 500 111.929 500 250ZM262.583 336.642C172.927 336.642 121.807 275.298 119.71 173.058H164.8C166.242 248.034 199.273 279.754 225.488 286.309V173.058H267.827V237.678C293.648 234.926 320.913 205.434 330.087 172.927H372.294C368.853 189.754 361.978 205.691 352.1 219.741C342.222 233.791 329.552 245.655 314.883 254.587C331.253 262.737 345.71 274.262 357.3 288.405C368.891 302.549 377.353 318.99 382.125 336.642H335.592C325.632 305.577 300.727 281.458 267.827 278.181V336.642H262.583Z" fill="#F0F0F0"></path></g><defs><clipPath id="clip0_429_30"><rect width="500" height="500" fill="white"></rect></clipPath></defs></svg> 